<svg xmlns="http://www.w3.org/2000/svg" width="1280" height="640" viewBox="0 0 1280 640"><title>BZP Airbridge — build your remote, keep control local</title><defs><linearGradient id="bg" x2="1" y2="1"><stop stop-color="#20272b"/><stop offset=".6" stop-color="#070a0c"/><stop offset="1" stop-color="#11171a"/></linearGradient><linearGradient id="metal"><stop stop-color="#fff"/><stop offset=".45" stop-color="#9ba4a9"/><stop offset=".75" stop-color="#eef1f2"/><stop offset="1" stop-color="#6e777d"/></linearGradient></defs><rect width="1280" height="640" fill="#000"/><rect x="28" y="28" width="1224" height="584" rx="28" fill="url(#bg)" stroke="#626d74" stroke-width="2"/><path d="M72 100h90" stroke="#28cfff" stroke-width="5"/><g font-family="Arial,Helvetica,sans-serif"><text x="72" y="145" fill="#9beaff" font-size="18" letter-spacing="5">HORTON SYSTEMS · LOCAL RF CONTROL</text><text x="68" y="260" fill="#eef1f2" font-size="76" font-weight="bold" letter-spacing="3">BZP AIRBRIDGE</text><text x="74" y="326" fill="#b3c1c8" font-size="30">Build your remote. Keep control local.</text><rect x="72" y="392" width="260" height="62" rx="12" fill="url(#metal)"/><text x="202" y="432" text-anchor="middle" fill="#050708" font-size="19" font-weight="bold" letter-spacing="1">BUILD · LEARN · SEND</text><text x="72" y="546" fill="#9beaff" font-size="19" letter-spacing="2">ESP32-C3 + CC1101  /  ESPHOME  /  HOME ASSISTANT</text><text x="1174" y="558" text-anchor="end" fill="#7c858b" font-size="15">REMOTE BUILDER BETA</text></g><g transform="translate(926 170) scale(.94)"><rect x="4" y="4" width="248" height="248" rx="48" fill="#0b1013" stroke="#7c858b" stroke-width="2"/><g fill="none" stroke="#eef1f2" stroke-width="8"><rect x="57" y="49" width="94" height="164" rx="24"/></g><circle cx="104" cy="89" r="14" fill="#28cfff"/><g fill="#eef1f2"><rect x="77" y="124" width="20" height="20" rx="5"/><rect x="112" y="124" width="20" height="20" rx="5"/><rect x="77" y="159" width="20" height="20" rx="5"/><rect x="112" y="159" width="20" height="20" rx="5"/></g><g fill="none" stroke="#28cfff" stroke-width="8" stroke-linecap="round"><path d="M171 65q25 25 0 50"/><path d="M193 45q45 45 0 90"/></g></g></svg>
